<?xml version="1.0" encoding="UTF-8"?>
<svg width="207px" height="34px" viewBox="0 0 207 34" version="1.1" xmlns="http://www.w3.org/2000/svg" xmlns:xlink="http://www.w3.org/1999/xlink">
    <!-- Generator: Sketch 47.1 (45422) - http://www.bohemiancoding.com/sketch -->
    <title>African Bank Logo</title>
    <desc>Created with Sketch.</desc>
    <defs>
        <polygon id="path-1" points="0 33.5733173 206.907796 33.5733173 206.907796 0 0 0"></polygon>
    </defs>
    <g id="Symbols" stroke="none" stroke-width="1" fill="none" fill-rule="evenodd">
        <g id="Horizontal-Menu" transform="translate(-215.000000, -82.000000)">
            <g id="African-Bank-Logo">
                <g transform="translate(215.000000, 81.500000)">
                    <g transform="translate(0.000000, 0.673077)">
                        <path d="M63.8159628,27.2707031 L63.8159628,14.3524339 L61.3802018,14.3524339 L61.3802018,11.3320012 L63.8159628,11.3320012 L63.8159628,10.0717849 C63.8159628,6.73164062 65.8129938,5.13728966 69.0816398,5.13728966 C70.0726752,5.13728966 70.968454,5.2836238 71.9133876,5.57569111 L71.9133876,8.71060697 C71.2365159,8.52040264 70.5520115,8.31457332 69.8418611,8.31457332 C68.3211133,8.31457332 67.738277,8.81998197 67.738277,10.3524339 L67.738277,11.3320012 L71.3763478,11.3320012 L71.3763478,14.3524339 L67.738277,14.3524339 L67.738277,27.2707031 L63.8159628,27.2707031 Z" id="Fill-1" fill="#FFFFFF"></path>
                        <path d="M73.5545801,27.2707031 L73.5545801,11.3320012 L77.4469739,11.3320012 L77.4469739,12.4017127 C78.3674827,11.6018329 79.5282704,11.0826022 80.972996,11.0826022 C81.5433146,11.0826022 82.0879872,11.2079026 82.6335757,11.3539363 L82.6335757,14.921845 C81.9447969,14.7505709 81.3744783,14.6024339 80.6557792,14.6024339 C79.113965,14.6024339 78.2264296,15.0901142 77.4781155,15.6880709 L77.4781155,27.2707031 L73.5545801,27.2707031 Z" id="Fill-3" fill="#FFFFFF"></path>
                        <mask id="mask-2" fill="white">
                            <use xlink:href="#path-1"></use>
                        </mask>
                        <g id="Clip-6"></g>
                        <path d="M85.2913274,27.2707332 L89.2148628,27.2707332 L89.2148628,11.3317308 L85.2913274,11.3317308 L85.2913274,27.2707332 Z M87.2700398,9.69951923 C86.0078894,9.69951923 85.0779159,8.72115385 85.0779159,7.57121394 C85.0779159,6.42157452 86.0078894,5.44320913 87.2700398,5.44320913 C88.4979956,5.44320913 89.4612478,6.41736779 89.4612478,7.57121394 C89.4612478,8.72415865 88.4979956,9.69951923 87.2700398,9.69951923 L87.2700398,9.69951923 Z" id="Fill-5" fill="#FFFFFF" mask="url(#mask-2)"></path>
                        <path d="M100.139639,27.5192608 C95.1728602,27.5192608 92.3731699,24.4125901 92.3731699,19.5655349 C92.3731699,14.9297175 94.8400726,11.0832632 100.01263,11.0832632 C101.621612,11.0832632 102.689891,11.3029147 104.172781,11.9198017 L104.172781,15.2103666 C102.794307,14.5808594 101.863112,14.2602464 100.328626,14.2602464 C97.5991566,14.2602464 96.3916566,16.0616286 96.3916566,19.5655349 C96.3916566,22.8026142 97.9133204,24.3116286 100.518834,24.3116286 C102.212387,24.3116286 102.988789,24.0691406 104.457024,23.2419171 L104.457024,26.6112079 C103.019626,27.2713642 101.745568,27.5192608 100.139639,27.5192608" id="Fill-7" fill="#FFFFFF" mask="url(#mask-2)"></path>
                        <path d="M112.25436,24.4366887 C113.256997,24.4366887 114.095072,24.0625901 114.608908,23.6127704 L114.608908,20.5692007 C114.352448,20.5595853 114.030041,20.5469651 113.77297,20.5469651 C111.152192,20.5469651 110.088492,21.2509916 110.088492,22.6163762 C110.088492,23.7723257 110.822457,24.4366887 112.25436,24.4366887 M118.072953,27.5193209 C116.793705,27.5193209 115.835643,26.9850661 115.288833,26.0773137 C114.429386,26.8696815 112.997484,27.5193209 111.336904,27.5193209 C108.268846,27.5193209 106.133205,25.7798377 106.133205,22.8654748 C106.133205,19.3982272 109.141422,17.8378305 113.455754,17.8378305 C113.826094,17.8378305 114.246811,17.854357 114.608908,17.8753906 L114.608908,17.2627103 C114.608908,15.2470853 113.852656,14.3222055 111.810134,14.3222055 C110.201762,14.3222055 109.004643,14.7497897 107.555643,15.3889123 L107.555643,12.0424579 C109.122187,11.4078425 110.684457,11.0830228 112.380147,11.0830228 C116.082333,11.0830228 118.532138,12.9496094 118.532138,16.7341647 L118.532138,23.4255709 C118.532138,24.1990084 118.819435,24.3429387 119.306404,24.3429387 C119.43555,24.3429387 119.566833,24.3273137 119.695979,24.3083834 L120.098683,24.2401743 L120.240652,24.2170373 L120.240652,27.0577825 C119.449289,27.3826022 118.984913,27.5193209 118.072953,27.5193209" id="Fill-8" fill="#FFFFFF" mask="url(#mask-2)"></path>
                        <path d="M122.677237,27.2707031 L122.677237,11.3320012 L126.537573,11.3320012 L126.537573,12.21872 C127.420529,11.6691406 128.739162,11.0826022 130.44279,11.0826022 C134.475016,11.0826022 135.86845,13.6198618 135.86845,16.8262921 L135.86845,27.2707031 L131.944914,27.2707031 L131.944914,17.3253906 C131.944914,15.3106671 131.390777,14.3229868 129.368405,14.3229868 C128.289746,14.3229868 127.296879,14.7673978 126.600467,15.2121094 L126.600467,27.2707031 L122.677237,27.2707031 Z" id="Fill-9" fill="#FFFFFF" mask="url(#mask-2)"></path>
                        <path d="M166.084588,24.4366887 C167.087225,24.4366887 167.9253,24.0625901 168.440358,23.6127704 L168.440358,20.5692007 C168.182676,20.5595853 167.862406,20.5469651 167.603198,20.5469651 C164.983641,20.5469651 163.91872,21.2509916 163.91872,22.6163762 C163.91872,23.7723257 164.654517,24.4366887 166.084588,24.4366887 M171.904402,27.5193209 C170.62607,27.5193209 169.665871,26.9850661 169.120282,26.0773137 C168.259614,26.8696815 166.828933,27.5193209 165.166216,27.5193209 C162.099074,27.5193209 159.963433,25.7798377 159.963433,22.8654748 C159.963433,19.3982272 162.972871,17.8378305 167.285981,17.8378305 C167.656322,17.8378305 168.077955,17.854357 168.440358,17.8753906 L168.440358,17.2627103 C168.440358,15.2470853 167.684105,14.3222055 165.641278,14.3222055 C164.03199,14.3222055 162.834871,14.7497897 161.386787,15.3889123 L161.386787,12.0424579 C162.952415,11.4078425 164.516822,11.0830228 166.210375,11.0830228 C169.913782,11.0830228 172.363282,12.9496094 172.363282,16.7341647 L172.363282,23.4255709 C172.363282,24.1990084 172.649663,24.3429387 173.136632,24.3429387 C173.265778,24.3429387 173.397061,24.3273137 173.526512,24.3083834 L173.931048,24.2401743 L174.07088,24.2170373 L174.07088,27.0577825 C173.280738,27.3826022 172.816362,27.5193209 171.904402,27.5193209" id="Fill-10" fill="#FFFFFF" mask="url(#mask-2)"></path>
                        <path d="M176.508656,27.2707031 L176.508656,11.3320012 L180.368992,11.3320012 L180.368992,12.21872 C181.251032,11.6691406 182.56997,11.0826022 184.274209,11.0826022 C188.305519,11.0826022 189.698647,13.6198618 189.698647,16.8262921 L189.698647,27.2707031 L185.776333,27.2707031 L185.776333,17.3253906 C185.776333,15.3106671 185.22128,14.3229868 183.197687,14.3229868 C182.12147,14.3229868 181.127076,14.7673978 180.43097,15.2121094 L180.43097,27.2707031 L176.508656,27.2707031 Z" id="Fill-11" fill="#FFFFFF" mask="url(#mask-2)"></path>
                        <path d="M205.433181,27.3951322 C203.792752,27.3951322 202.580672,26.9020433 201.251354,25.1352163 L197.512836,20.289363 L197.512836,27.2710337 L193.588385,27.2710337 L193.588385,5.38671875 L197.512836,5.38671875 L197.512836,17.3371394 L202.445115,11.3320312 L206.907827,11.3320312 L200.810181,18.546875 L204.679066,23.4245793 C205.147106,24.0297476 205.463101,24.2190505 206.002278,24.2190505 C206.116464,24.2190505 206.747539,24.1379207 206.747539,24.1379207 L206.747539,27.1784856 C206.299039,27.3109976 205.90519,27.3951322 205.433181,27.3951322" id="Fill-12" fill="#FFFFFF" mask="url(#mask-2)"></path>
                        <path d="M149.312519,14.2644832 C151.790108,14.2644832 152.865409,13.1716346 152.865409,11.2221154 C152.865409,9.55294471 151.829493,8.38737981 149.347935,8.38737981 L147.314573,8.38737981 L147.314573,14.2644832 L149.312519,14.2644832 Z M149.418462,24.0216947 C151.971462,24.0216947 153.256205,22.8552284 153.256205,20.697476 C153.256205,18.4579928 152.06336,17.2344351 149.491126,17.2344351 L147.314573,17.2344351 L147.314573,24.0216947 L149.418462,24.0216947 Z M149.951227,27.2701923 L143.26525,27.2701923 L143.26525,5.13798077 L149.737816,5.13798077 C154.38921,5.13798077 156.914427,7.39038462 156.914427,10.8362981 C156.914427,13.0370192 155.718528,14.6301683 154.204497,15.4090144 L153.748365,15.6445913 L154.229227,15.8263822 C156.192674,16.5703726 157.626104,18.2350361 157.626104,20.8026442 C157.626104,24.7332332 154.679559,27.2701923 149.951227,27.2701923 L149.951227,27.2701923 Z" id="Fill-13" fill="#FFFFFF" mask="url(#mask-2)"></path>
                        <path d="M46.548377,27.2707031 L42.4028814,27.2707031 L49.9025097,5.13728966 L54.4140717,5.13728966 L61.6627354,27.2707031 L57.2323858,27.2707031 L55.9048991,22.756881 L47.9353991,22.756881 L46.548377,27.2707031 Z M54.9172221,19.3939002 L52.008231,9.50327524 L48.9691779,19.3939002 L54.9172221,19.3939002 Z" id="Fill-14" fill="#FFFFFF" mask="url(#mask-2)"></path>
                        <path d="M17.3838478,33.5731671 C11.7157726,33.5731671 7.91527699,32.4466647 5.53386106,31.324369 C4.34437434,30.7627704 3.50813097,30.2026743 2.97109115,29.7847055 C2.44015752,29.3715445 2.19896283,29.0929988 2.19896283,29.0929988 C1.22929912,28.0599459 0.767060177,27.2747897 0.345122124,25.9328425 C0.345122124,25.9328425 0.220250442,25.5881911 0.121940708,24.9280349 C0.0214938053,24.2576623 -0.0530017699,23.2654748 0.0483610619,21.9728065 C0.250170796,19.3811599 1.15785664,15.5764724 3.99174159,10.746244 C7.46555575,4.82527043 11.0269938,2.14107572 13.2545336,0.950270433 C8.41812212,5.89287861 6.94866637,17.1855469 8.30607345,21.7645733 C8.79823274,23.2246094 9.52548053,23.801232 9.63661327,23.8835637 C9.80209115,24.0641526 11.8565204,26.1828425 17.3838478,26.1828425 C23.125808,26.1828425 25.1194805,23.8970853 25.1417681,23.8709435 C25.6479717,23.3327825 25.8891664,22.9196214 26.1105159,22.2207031 C26.1199805,22.1933594 26.8374584,20.1828425 25.3597593,16.6338642 C29.8765115,23.1582031 31.8256088,32.323768 20.412215,33.4598858 C19.4681973,33.534405 18.4591487,33.5731671 17.3838478,33.5731671 L35.2915456,53.4994561" id="Fill-15" fill="#FFFFFF" mask="url(#mask-2)"></path>
                        <path d="M18.1248956,8.95195313 C17.516108,8.83837139 17.0615018,8.85429688 16.4142451,8.99822716 C16.3800504,9.00453726 13.3739708,9.56042668 10.503754,14.4546575 C9.94198407,15.4122897 9.52859469,16.2917969 9.22755929,17.08747 C9.33319646,9.66769832 13.0515637,-0.762289663 19.2408027,0.0439002404 C19.2408027,0.0439002404 19.6007628,0.11030649 20.2306168,0.35609976 C20.8681035,0.605198317 21.7791478,1.03728966 22.8694088,1.77076322 C25.0477938,3.23891226 27.9418248,5.91469351 30.7747938,10.7449219 C33.6086788,15.5772536 34.5175858,19.3807392 34.7215327,21.9690805 C34.8219796,23.2629507 34.7480947,24.2551382 34.6479531,24.9234075 C34.5484221,25.5847656 34.4247717,25.9282151 34.4247717,25.9282151 C34.0016124,27.2701623 33.5415106,28.05622 32.5718469,29.0895733 C32.5718469,29.0895733 32.4845283,29.1893329 32.3050062,29.3551983 C32.1190726,29.5255709 31.8363558,29.7653546 31.4443381,30.0457031 C30.7457894,30.5439002 29.6994929,31.1704026 28.2364487,31.7569411 C30.5656566,29.3416767 30.8144841,25.8765325 29.7828425,22.3612079 C28.0517363,16.4621695 22.5992097,9.98410457 18.641785,9.03188101 C18.5147761,9.00153245 18.1248956,8.95195313 18.1248956,8.95195313" id="Fill-16" fill="#88BC47" mask="url(#mask-2)"></path>
                    </g>
                </g>
            </g>
        </g>
    </g>
</svg>