<?xml version="1.0" encoding="UTF-8"?>
<svg width="96px" height="48px" viewBox="0 0 96 48" version="1.1" xmlns="http://www.w3.org/2000/svg" xmlns:xlink="http://www.w3.org/1999/xlink">
    <title>mtn_LOGO_2021</title>
    <g id="Page-1" stroke="none" stroke-width="1" fill="none" fill-rule="evenodd">
        <g id="Homepage_TWO-LINE-HEADLINE-Copy" transform="translate(-252.000000, -40.000000)" fill="#000000">
            <g id="NAV" transform="translate(0.000000, -24.000000)">
                <g id="Group-10" transform="translate(56.000000, 8.000000)">
                    <g id="NAV" transform="translate(0.000000, 40.000000)">
                        <g id="mtn_LOGO_2021" transform="translate(196.000000, 16.000000)">
                            <path d="M48,44.3076923 C21.5245714,44.3076923 3.74025974,33.8073846 3.74025974,24 C3.74025974,14.1926154 21.5245714,3.69230769 48,3.69230769 C74.4754286,3.69230769 92.2597403,14.1926154 92.2597403,24 C92.2597403,33.8073846 74.4754286,44.3076923 48,44.3076923 M48,0 C21.4909091,0 0,10.7452308 0,24 C0,37.2547692 21.4909091,48 48,48 C74.5090909,48 96,37.2547692 96,24 C96,10.7452308 74.5090909,0 48,0" id="Fill-1"></path>
                            <polygon id="Fill-3" points="41.0186449 19.6923077 47.0116531 19.6923077 47.0116531 32 51.0069918 32 51.0069918 19.6923077 57 19.6923077 57 16 41 16.0252308"></polygon>
                            <polygon id="Fill-5" points="71.0058248 16.0252308 71.0058248 25.5692308 63.0174745 16 59 16.0252308 59 32.0049231 63.0174745 32 63.0174745 22.1538462 71.0058248 32 75 32.0049231 75 16.0252308"></polygon>
                            <polygon id="Fill-7" points="30 22.7692308 24.8571429 16 21 16 21.0135 32.0049231 24.8571429 32 24.8571429 22.1538462 28.7142857 27.0769231 31.2857143 27.0769231 35.1428571 22.1538462 35.1428571 32 38.9865 32.0049231 39 16 35.1428571 16"></polygon>
                        </g>
                    </g>
                </g>
            </g>
        </g>
    </g>
</svg>